<?xml version="1.0" encoding="UTF-8"?><svg width="212px" height="212px" viewBox="0 0 212 212" version="1.1" xmlns="http://www.w3.org/2000/svg" xmlns:xlink="http://www.w3.org/1999/xlink"><title>bread</title><desc>Created with Sketch.</desc><g id="bread" stroke="none" stroke-width="1" fill="none" fill-rule="evenodd"><rect id="Rectangle-126-Copy" fill="#CD7900" x="44" y="76" width="91" height="89" rx="11"/><rect id="Rectangle-126" fill="#CD7900" x="24" y="43" width="129" height="55" rx="27.5"/><path d="M165.5,47 L91.5,47 C85.0106542,47 79.1356542,49.6303271 74.8829906,53.8829906 C70.6303271,58.1356542 68,64.0106542 68,70.5 C68,75.81412 69.7631178,80.7167133 72.738026,84.6531347 C76.3626726,89.4492951 81.7823313,92.8150597 88.0006936,93.7417554 L88,154.000046 C88,155.932997 88.7835017,157.682997 90.0502525,158.949747 C91.3170034,160.216498 93.0670034,161 95,161 L164,161 C165.932997,161 167.682997,160.216498 168.949747,158.949747 C170.216498,157.682997 171,155.932997 171,154 L171.001004,93.3536531 C176.678642,91.9924579 181.552789,88.5689422 184.792657,83.9222592 C187.445663,80.1172653 189,75.4900106 189,70.5 C189,64.0106542 186.369673,58.1356542 182.117009,53.8829906 C177.864346,49.6303271 171.989346,47 165.5,47 Z" id="Combined-Shape" stroke="#E08400" stroke-width="8" fill="#FFCE8E"/><circle id="Oval-42" fill="#EFB76E" cx="154.5" cy="76.5" r="9.5"/><circle id="Oval-42-Copy" fill="#EFB76E" cx="138.5" cy="88.5" r="6.5"/></g></svg>