<?xml version="1.0" encoding="UTF-8"?><svg width="212px" height="212px" viewBox="0 0 212 212" version="1.1" xmlns="http://www.w3.org/2000/svg" xmlns:xlink="http://www.w3.org/1999/xlink"><title>sugar</title><desc>Created with Sketch.</desc><defs><path d="M18.8411187,0 L123.527307,0 C126.28873,-1.02772279e-14 128.527307,2.23857625 128.527307,5 C128.527307,5.50701385 128.45019,6.0110785 128.298603,6.49490118 L121.771575,27.3273048 C120.801418,30.42377 120.307873,33.6497838 120.307873,36.8946724 L120.307873,147 C120.307873,153.627417 114.93529,159 108.307873,159 L12,159 C5.372583,159 2.58798134e-15,153.627417 0,147 L0,36.8946724 C3.51297525e-14,33.6497838 0.493544721,30.42377 1.46370229,27.3273048 L7.39000701,8.41223716 C8.95826178,3.40681702 13.5957727,6.29262493e-15 18.8411187,0 Z" id="path-1"/></defs><g id="sugar" stroke="none" stroke-width="1" fill="none" fill-rule="evenodd"><rect id="Rectangle" fill="#1899D6" x="47" y="18" width="110" height="18" rx="5"/><path d="M68,31 L157.137104,31 C162.405162,31 167.057191,34.4358703 168.606452,39.4709698 L174.010055,57.03268 C175.32927,61.3201269 176,65.7807292 176,70.2665432 L176,178 C176,184.627417 170.627417,190 164,190 L68,190 C61.372583,190 56,184.627417 56,178 L56,43 C56,36.372583 61.372583,31 68,31 Z" id="Rectangle-Copy" fill="#1182B8"/><g id="Rectangle" transform="translate(27.000000, 31.000000)"><mask id="mask-2" fill="white"><use xlink:href="#path-1"/></mask><use id="Mask" fill="#1899D6" xlink:href="#path-1"/><rect fill="#ECF0F1" opacity="0.616071429" mask="url(#mask-2)" x="-2" y="20" width="139" height="11"/><rect fill="#ECF0F1" opacity="0.616071429" mask="url(#mask-2)" x="-2" y="125" width="139" height="11"/></g><path d="M119.427364,100.500227 L49.5726356,100.500227 C50.1765831,110.861617 54.5052925,120.099433 61.0824799,126.616052 C67.2926276,132.769011 75.5037206,136.5 84.5,136.5 C93.4962794,136.5 101.707372,132.769011 107.91752,126.616052 C114.494708,120.099433 118.823417,110.861617 119.427364,100.500227 Z" id="Combined-Shape" stroke="#FFFFFF" stroke-width="3" fill="#FFFFFF" stroke-linecap="round" stroke-linejoin="round"/><circle id="Oval" fill="#FFFFFF" cx="85.5" cy="71.5" r="3.5"/><circle id="Oval" fill="#FFFFFF" cx="95.5" cy="79.5" r="3.5"/><rect id="Rectangle" fill="#D2E0E3" x="145" y="157" width="33" height="33" rx="3"/><circle id="Oval" fill="#FFFFFF" cx="80.5" cy="90.5" r="3.5"/><rect id="Rectangle" fill="#FFFFFF" x="52" y="133" width="65" height="7" rx="3.5"/><rect id="Rectangle" fill="#ECF0F1" x="127" y="157" width="33" height="33" rx="3"/><rect id="Rectangle" fill="#D2E0E3" x="156" y="124" width="33" height="33" rx="3"/><rect id="Rectangle" fill="#ECF0F1" x="138" y="124" width="33" height="33" rx="3"/><circle id="Oval" stroke="#FFFFFF" stroke-width="6" fill="#1899D6" cx="122" cy="110" r="9"/></g></svg>